<svg xmlns="http://www.w3.org/2000/svg" width="500" height="400" viewBox="0 0 500 400">
  <!-- Circle Background -->
  <circle cx="250" cy="200" r="150" fill="#e6f0ff" stroke="#1b62b3" stroke-width="4" />
  
  <!-- House -->
  <path d="M190 250 L250 190 L310 250 L310 320 L190 320 Z" fill="white" stroke="#1b62b3" stroke-width="3" />
  <rect x="230" y="270" width="40" height="50" fill="#1b62b3" />
  
  <!-- Protective Hand -->
  <path d="M150 150 C180 100, 250 80, 320 100 C350 110, 370 140, 380 180" 
        fill="none" stroke="#1b62b3" stroke-width="6" />
  <path d="M380 180 L390 160 M380 180 L400 185" stroke="#1b62b3" stroke-width="4" />
  
  <!-- Family Simplified -->
  <circle cx="225" cy="230" r="10" fill="#1b62b3" />
  <line x1="225" y1="240" x2="225" y2="260" stroke="#1b62b3" stroke-width="2" />
  <line x1="215" y1="250" x2="235" y2="250" stroke="#1b62b3" stroke-width="2" />
  
  <circle cx="265" cy="230" r="10" fill="#1b62b3" />
  <line x1="265" y1="240" x2="265" y2="260" stroke="#1b62b3" stroke-width="2" />
  <line x1="255" y1="250" x2="275" y2="250" stroke="#1b62b3" stroke-width="2" />
  
  <circle cx="245" cy="210" r="8" fill="#1b62b3" />
  <line x1="245" y1="218" x2="245" y2="235" stroke="#1b62b3" stroke-width="2" />
  <line x1="238" y1="225" x2="252" y2="225" stroke="#1b62b3" stroke-width="2" />
  
  <!-- Text -->
  <text x="250" y="360" font-family="Arial" font-size="16" text-anchor="middle" fill="#1b62b3" font-weight="bold">FINANCIAL PROTECTION</text>
</svg> 