<svg xmlns="http://www.w3.org/2000/svg" width="500" height="400" viewBox="0 0 500 400">
  <!-- Shield Background -->
  <path d="M250 40 L400 100 L350 340 L250 380 L150 340 L100 100 Z" fill="#e6f0ff" stroke="#1b62b3" stroke-width="4" />
  
  <!-- House Symbol -->
  <path d="M200 150 L250 100 L300 150 L300 220 L200 220 Z" fill="white" stroke="#1b62b3" stroke-width="3" />
  <rect x="240" y="180" width="20" height="40" fill="#1b62b3" />
  
  <!-- Dollar Symbol -->
  <circle cx="250" cy="270" r="40" fill="white" stroke="#1b62b3" stroke-width="3" />
  <path d="M250 240 L250 300" stroke="#1b62b3" stroke-width="3" />
  <path d="M240 250 C240 245, 245 240, 250 240 C255 240, 260 245, 260 250 C260 255, 255 260, 250 260 C245 260, 240 265, 240 270 C240 275, 245 280, 250 280 C255 280, 260 275, 260 270" stroke="#1b62b3" stroke-width="3" fill="none" />
  
  <!-- Umbrella Protection -->
  <path d="M150 110 C250 40, 350 40, 350 110" stroke="#1b62b3" stroke-width="6" fill="none" />
  <line x1="250" y1="110" x2="250" y2="60" stroke="#1b62b3" stroke-width="4" />
  <circle cx="250" cy="55" r="7" fill="#1b62b3" />
  
  <!-- Text at Bottom -->
  <text x="250" y="350" font-family="Arial" font-size="16" text-anchor="middle" fill="#1b62b3" font-weight="bold">FINANCIAL PROTECTION</text>
</svg> 