<svg xmlns="http://www.w3.org/2000/svg" viewBox="0 0 800 600" width="800" height="600">
  <!-- Background -->
  <rect x="0" y="0" width="800" height="600" fill="none"/>
  
  <!-- Main chart background -->
  <rect x="100" y="150" width="600" height="300" rx="10" ry="10" fill="#f4f7fc" stroke="#ddd" stroke-width="2"/>
  
  <!-- X and Y axis -->
  <line x1="150" y1="400" x2="650" y2="400" stroke="#333" stroke-width="2"/>
  <line x1="150" y1="200" x2="150" y2="400" stroke="#333" stroke-width="2"/>
  
  <!-- Chart grid lines -->
  <line x1="150" y1="250" x2="650" y2="250" stroke="#ddd" stroke-width="1" stroke-dasharray="5,5"/>
  <line x1="150" y1="300" x2="650" y2="300" stroke="#ddd" stroke-width="1" stroke-dasharray="5,5"/>
  <line x1="150" y1="350" x2="650" y2="350" stroke="#ddd" stroke-width="1" stroke-dasharray="5,5"/>
  
  <line x1="233" y1="200" x2="233" y2="400" stroke="#ddd" stroke-width="1" stroke-dasharray="5,5"/>
  <line x1="316" y1="200" x2="316" y2="400" stroke="#ddd" stroke-width="1" stroke-dasharray="5,5"/>
  <line x1="400" y1="200" x2="400" y2="400" stroke="#ddd" stroke-width="1" stroke-dasharray="5,5"/>
  <line x1="483" y1="200" x2="483" y2="400" stroke="#ddd" stroke-width="1" stroke-dasharray="5,5"/>
  <line x1="566" y1="200" x2="566" y2="400" stroke="#ddd" stroke-width="1" stroke-dasharray="5,5"/>
  
  <!-- Line chart -->
  <polyline points="150,350 233,320 316,340 400,280 483,230 566,200 650,180" 
           fill="none" stroke="#1e56a0" stroke-width="3"/>
  
  <!-- Data points -->
  <circle cx="150" cy="350" r="6" fill="#1e56a0"/>
  <circle cx="233" cy="320" r="6" fill="#1e56a0"/>
  <circle cx="316" cy="340" r="6" fill="#1e56a0"/>
  <circle cx="400" cy="280" r="6" fill="#1e56a0"/>
  <circle cx="483" cy="230" r="6" fill="#1e56a0"/>
  <circle cx="566" cy="200" r="6" fill="#1e56a0"/>
  <circle cx="650" cy="180" r="6" fill="#1e56a0"/>
  
  <!-- Bar chart -->
  <rect x="180" y="350" width="20" height="50" fill="#f6b93b" rx="3" ry="3"/>
  <rect x="263" y="330" width="20" height="70" fill="#f6b93b" rx="3" ry="3"/>
  <rect x="346" y="320" width="20" height="80" fill="#f6b93b" rx="3" ry="3"/>
  <rect x="430" y="290" width="20" height="110" fill="#f6b93b" rx="3" ry="3"/>
  <rect x="513" y="270" width="20" height="130" fill="#f6b93b" rx="3" ry="3"/>
  <rect x="596" y="250" width="20" height="150" fill="#f6b93b" rx="3" ry="3"/>
  
  <!-- Financial icons -->
  <circle cx="700" cy="150" r="30" fill="#f6b93b"/>
  <text x="700" y="158" font-family="Arial" font-size="24" fill="white" text-anchor="middle">$</text>
  
  <circle cx="100" cy="450" r="25" fill="#1e56a0"/>
  <text x="100" y="458" font-family="Arial" font-size="20" fill="white" text-anchor="middle">%</text>
  
  <!-- Decorative elements -->
  <circle cx="750" cy="350" r="40" fill="#163172" opacity="0.1"/>
  <circle cx="700" cy="400" r="25" fill="#163172" opacity="0.1"/>
  <circle cx="730" cy="300" r="15" fill="#163172" opacity="0.1"/>
  
  <circle cx="50" cy="200" r="30" fill="#f6b93b" opacity="0.1"/>
  <circle cx="80" cy="230" r="20" fill="#f6b93b" opacity="0.1"/>
  <circle cx="30" cy="250" r="15" fill="#f6b93b" opacity="0.1"/>
</svg> 